<?xml version="1.0" encoding="utf-8"?>
<!-- Generator: Adobe Illustrator 25.4.1, SVG Export Plug-In . SVG Version: 6.00 Build 0)  -->
<svg version="1.1" id="Layer_1" xmlns="http://www.w3.org/2000/svg" xmlns:xlink="http://www.w3.org/1999/xlink" x="0px" y="0px"
	 width="32px" height="32px" viewBox="0 0 32 32" style="enable-background:new 0 0 32 32;" xml:space="preserve">
<style type="text/css">
	.st0{fill:#008CFF;}
</style>
<g id="dashboard-reference" transform="translate(-2.25 -2.25)">
	<path id="Path_4631" class="st0" d="M15.5,23.4h2v5.1h-2V23.4z"/>
	<path id="Path_4632" class="st0" d="M11.5,18.4h2v10.1h-2V18.4z"/>
	<path id="Path_4633" class="st0" d="M7.4,20.4h2v8.1h-2V20.4z"/>
	<path class="st0" d="M31.8,2.5h-27c-1.2,0-2.2,1-2.2,2.2l0,27.3c0,1.1,0.9,2,2,2h27.3c1.2,0,2.2-1,2.2-2.2v-27
		C34,3.5,33,2.5,31.8,2.5z M4.8,4.8h9v6.9h-9V4.8z M31.8,31.8h-27V13.9h27V31.8z M31.8,11.6H16V4.8h15.8V11.6z"/>
</g>
<path class="st0" d="M26.5,17.6v7.1H20v-7.1H26.5 M18.5,16.1v10.1H28V16.1H18.5z"/>
<rect x="21.5" y="5" width="2" height="2"/>
<rect x="25.5" y="5" width="2" height="2"/>
</svg>
