<?xml version="1.0" encoding="UTF-8"?><svg id="Layer_1" xmlns="http://www.w3.org/2000/svg" viewBox="0 0 16.91 16.91"><defs><style>.cls-1{fill:#001f4e;}</style></defs><path class="cls-1" d="m16.66,12.78h-1.82c.09-.13.17-.26.25-.39.07-.12.03-.27-.09-.34-.12-.07-.27-.03-.34.09-.13.22-.28.44-.43.64h-4.84c.02-.06.03-.12.03-.18v-.31h.44s0,0,0,0c.2,0,.32-.23.2-.39l-2.6-3.58c-.14-.19-.45-.09-.45.15v3.33h-.69c-.24,0-.43.19-.43.43v.38c0,.06,0,.12.03.18h-3.22c-.94-1.25-1.44-2.75-1.44-4.33,0-1.07.23-2.09.67-3.05h.45c.14,0,.25-.11.25-.25s-.11-.25-.25-.25h-1.3c-.31,0-.58-.25-.58-.56,0-.28.21-.52.48-.55.13-.02.24-.11.28-.24.11-.36.49-.57.86-.48.2.05.4-.08.43-.29.06-.45.46-.8.92-.8.4,0,.75.25.88.63.05.16.22.26.39.23.48-.08.94.23,1.05.7.05.19.25.31.44.25.34-.11.71.15.72.52,0,.31-.27.56-.57.56h-2.96c-.14,0-.25.11-.25.25s.11.25.25.25h2.96c.58,0,1.08-.47,1.07-1.07,0-.65-.6-1.12-1.21-1.03-.21-.6-.81-1-1.45-.95-.01-.03-.03-.06-.04-.09,1.12-.68,2.41-1.04,3.73-1.04.34,0,.67.02,1.01.07,0,.07-.01.14-.01.21,0,.84.68,1.52,1.52,1.52.54,0,1.02-.29,1.29-.72.59.37,1.13.82,1.59,1.34-.13-.04-.26-.06-.4-.06-.57,0-1.08.34-1.31.86-.64-.05-1.24.34-1.45.95-.61-.09-1.2.37-1.21,1.03,0,.59.49,1.07,1.07,1.07h5.06c.04.32.06.64.06.96,0,.96-.19,1.89-.55,2.77-.05.13,0,.27.13.32.13.05.27,0,.32-.13.39-.94.59-1.94.59-2.96,0-.33-.02-.66-.06-.99.46-.12.81-.54.81-1.02,0-.49-.35-.92-.82-1.03-.16-.39-.51-.66-.91-.74-.65-1.16-1.59-2.14-2.74-2.83.02-.11.04-.22.04-.34,0-.84-.68-1.52-1.52-1.52-.59,0-1.1.34-1.35.83-.38-.06-.77-.09-1.16-.09-1.43,0-2.82.39-4.03,1.14-.26-.23-.6-.37-.96-.37-.65,0-1.22.45-1.38,1.07-.54-.06-1.06.24-1.26.75C.35,3.43,0,3.86,0,4.36c0,.57.49,1.05,1.07,1.05h.3c-.42.96-.63,1.99-.63,3.05,0,1.56.46,3.05,1.33,4.33H.25C.11,12.78,0,12.89,0,13.03v1.49C0,15.83,1.07,16.91,2.39,16.91h10.26c.14,0,.25-.11.25-.25s-.11-.25-.25-.25H2.39c-1.05,0-1.9-.85-1.9-1.9v-1.24h15.92v1.24c0,1.05-.85,1.9-1.9,1.9h-.79c-.14,0-.25.11-.25.25s.11.25.25.25h.79c1.32,0,2.39-1.07,2.39-2.39v-1.49c0-.14-.11-.25-.25-.25Zm-1.01-7.12c.04.13.15.22.28.24.27.04.48.27.48.55,0,.3-.26.56-.58.56h-5.29c-.31,0-.58-.25-.57-.56,0-.38.37-.63.72-.52.19.06.39-.06.44-.25.11-.47.57-.78,1.05-.7.17.03.33-.07.39-.23.13-.38.48-.63.88-.63.46,0,.85.34.92.8.03.2.23.34.43.29.37-.09.74.12.86.48ZM10.96.5c.56,0,1.02.46,1.02,1.02s-.46,1.02-1.02,1.02-1.02-.46-1.02-1.02.46-1.02,1.02-1.02Zm-3.47,8.72l1.87,2.57c-.39,0-1.24,0-1.87,0v-2.57Zm-.94,3.56c-.1,0-.18-.08-.18-.18v-.31c3.06,0,2.46,0,2.54,0v.31c0,.1-.08.18-.18.18h-2.18Z"/><path class="cls-1" d="m2.28,14.12c-.14,0-.25.11-.25.25s.11.25.25.25h1.97c.14,0,.25-.11.25-.25s-.11-.25-.25-.25h-1.97Z"/><path class="cls-1" d="m14.63,14.61c.14,0,.25-.11.25-.25s-.11-.25-.25-.25h-2.4c-.14,0-.25.11-.25.25s.11.25.25.25h2.4Z"/><path class="cls-1" d="m4.95,15.15c-.14,0-.25.11-.25.25s.11.25.25.25h4.04c.14,0,.25-.11.25-.25s-.11-.25-.25-.25h-4.04Z"/><path class="cls-1" d="m10.78,15.15c-.14,0-.25.11-.25.25s.11.25.25.25h1.19c.14,0,.25-.11.25-.25s-.11-.25-.25-.25h-1.19Z"/></svg>