<?xml version="1.0" encoding="UTF-8"?>
<svg id="Layer_1" xmlns="http://www.w3.org/2000/svg" viewBox="0 0 16 14.28">
  <path d="M4.14,6.53c.64-.42,1.07-1.14,1.07-1.96,0-1.29-1.05-2.34-2.34-2.34-.39,0-.77.1-1.11.28-.11.06-.16.2-.1.32.06.11.2.16.32.1.27-.14.58-.22.88-.22,1.03,0,1.88.84,1.88,1.87s-.84,1.87-1.88,1.87-1.88-.84-1.88-1.87c0-.38.12-.75.33-1.07.07-.11.05-.25-.06-.33-.11-.07-.25-.05-.33.06-.27.39-.42.85-.42,1.33,0,.82.42,1.55,1.07,1.96-.91.27-1.58,1.11-1.58,2.11v2.25c0,.39.32.7.7.7h4.31c.39,0,.7-.32.7-.7v-2.25c0-1-.67-1.84-1.58-2.11ZM2.59,8.15h.54l.4,1.72-.67.32-.67-.32.4-1.72ZM3.28,6.91l-.15.78h-.52l-.15-.78h.83ZM5.25,10.89c0,.13-.11.23-.23.23H.7c-.13,0-.23-.11-.23-.23v-2.25c0-.88.65-1.6,1.5-1.72l.2.99-.47,2.03c-.02.11.03.22.13.26l.94.45s.07.02.1.02.07,0,.1-.02l.94-.45c.1-.05.15-.16.13-.26l-.47-2.03.2-.99c.85.12,1.5.84,1.5,1.72v2.25Z" fill="#16224c"/>
  <path d="M14.42,6.53c.64-.42,1.07-1.14,1.07-1.96,0-1.29-1.05-2.34-2.34-2.34s-2.34,1.05-2.34,2.34c0,.82.42,1.55,1.07,1.96-.91.27-1.58,1.11-1.58,2.11v2.25c0,.39.32.7.7.7h3.02c.13,0,.23-.1.23-.23s-.1-.23-.23-.23h-3.02c-.13,0-.23-.11-.23-.23v-2.25c0-.88.65-1.6,1.5-1.72l.2.99-.47,2.03c-.02.11.03.22.13.26l.94.45s.07.02.1.02.07,0,.1-.02l.94-.45c.1-.05.15-.16.13-.26l-.47-2.03.2-.99c.85.12,1.5.84,1.5,1.72v2.25c0,.13-.11.23-.23.23h-.29c-.13,0-.23.1-.23.23s.1.23.23.23h.29c.39,0,.7-.32.7-.7v-2.25c0-1-.67-1.84-1.58-2.11ZM13.56,6.91l-.15.78h-.52l-.15-.78h.83ZM11.27,4.56c0-1.03.84-1.87,1.87-1.87s1.88.84,1.88,1.87-.84,1.87-1.88,1.87-1.87-.84-1.87-1.87ZM13.14,10.19l-.67-.32.4-1.72h.54l.4,1.72-.67.32Z" fill="#16224c"/>
  <path d="M9.93,1.11L8.65.07c-.21-.17-.52-.02-.52.25v.37c-.25,0-.66.03-1.05.16-.65.21-1.04.62-1.12,1.19-.02.13.04.25.15.32.11.07.25.06.35-.02.11-.09.31-.2.61-.28.12-.03.2-.16.16-.29-.03-.12-.16-.2-.29-.16-.15.04-.28.09-.39.14.13-.2.35-.35.67-.45.42-.14.87-.14,1.05-.13.09,0,.17-.03.23-.09s.1-.14.1-.23v-.2l.89.72-.89.72v-.23c0-.16-.12-.29-.27-.31-.1-.02-.21-.03-.31-.03-.13,0-.24.09-.25.22,0,.13.09.24.22.25.05,0,.1,0,.15.01v.42c0,.27.31.42.52.25l1.28-1.04c.07-.06.12-.15.12-.25s-.04-.19-.12-.25Z" fill="#16224c"/>
  <path d="M9.89,11.93c-.11-.07-.25-.06-.35.02-.24.18-.76.45-1.67.35v-.42c0-.12-.07-.23-.18-.29-.11-.05-.24-.04-.34.04l-1.28,1.04c-.07.06-.12.15-.12.25,0,.1.04.19.12.25l1.28,1.04c.21.17.52.02.52-.25v-.37c.25,0,.66-.03,1.05-.16.65-.21,1.04-.62,1.12-1.19.02-.13-.04-.25-.15-.32ZM8.78,12.99c-.42.14-.87.14-1.05.13-.18,0-.33.14-.33.32v.2l-.89-.72.89-.72v.23c0,.16.12.29.27.31.81.12,1.39-.03,1.77-.2-.13.2-.35.35-.67.45Z" fill="#16224c"/>
</svg>