<?xml version="1.0" encoding="UTF-8"?><svg id="Layer_1" xmlns="http://www.w3.org/2000/svg" viewBox="0 0 19.62 19.62"><defs><style>.cls-1{fill:none;stroke:#001f4e;stroke-miterlimit:10;}.cls-2{fill:#001f4e;}</style></defs><path class="cls-2" d="m6.81,19.15c4.87,1.56,9.88-.88,11.9-5.2,1.73-3.71.99-8.3-2.18-11.28-1.83-1.72-4.21-2.66-6.72-2.66C4.4,0,0,4.4,0,9.81c0,3.27,1.61,6.2,4.11,7.98.18.13.43.09.55-.09s.09-.43-.09-.55c-2.37-1.69-3.78-4.43-3.78-7.34C.79,4.84,4.84.79,9.81.79s8.69,3.7,9,8.43c.41,6.46-5.81,11.08-11.75,9.17-.21-.07-.43.05-.5.26-.07.21.05.43.26.5h0Z"/><path class="cls-1" d="m6.76,7.66l-.46-2.55s-.1-1.1,1.14-1.26c.02.01,1.07-.08,1.28.96.03.01.09,2.32.09,2.32h1.65v-2.11s.09-1.23,1.34-1.17c0,.01,1.18-.05,1.15,1.3,0,.01-.42,2.51-.42,2.51,0,0,2.37.86,2.42,2.68.01.02.37,2.51-1.79,3.46-.01.02-3.16,1.61-6.61.17-.01.01-2.76-1.07-2.2-3.57,0-.01.53-2.03,2.42-2.75Z"/></svg>