<svg xmlns="http://www.w3.org/2000/svg" width="19.243" height="27.948" viewBox="0 0 19.243 27.948">
  <g id="PassUp_Letgo_Clone" data-name="PassUp – Letgo Clone" transform="translate(-119.2 -71.1)">
    <path id="Path_385" data-name="Path 385" d="M125.587,90.733a.426.426,0,0,1-.272-.11.4.4,0,0,1-.066-.5l3.135-5.048-3.157-5.659a.388.388,0,0,1,.066-.478.413.413,0,0,1,.478-.044l8.771,5.563a.409.409,0,0,1,.184.339.383.383,0,0,1-.184.339l-8.749,5.519A.307.307,0,0,1,125.587,90.733Zm-4.18-2.414a.411.411,0,0,1-.412-.412V75.78h-1V94.346h17.661V75.78H121.812V87.914A.4.4,0,0,1,121.408,88.319Zm7.815-14.467h-2.134a.412.412,0,0,1,0-.824h2.134a.412.412,0,1,1,0,.824Zm6.225,0h-2.134a.412.412,0,0,1,0-.824h2.134a.412.412,0,1,1,0,.824Zm-6.115,23.261H127.2a.412.412,0,0,1,0-.824h2.134a.411.411,0,0,1,.412.412A.421.421,0,0,1,129.333,97.113Zm8.323-1.95H119.995v1.045a2.056,2.056,0,0,0,2.046,2.046H135.6a2.037,2.037,0,0,0,2.046-2.046Zm-17.661-20.2h17.653V73.94a2.056,2.056,0,0,0-2.046-2.046H122.04a2.07,2.07,0,0,0-2.046,2.046Zm15.637,24.085H122.04a2.842,2.842,0,0,1-2.84-2.84V73.94a2.842,2.842,0,0,1,2.84-2.84H135.6a2.842,2.842,0,0,1,2.84,2.84V96.208A2.8,2.8,0,0,1,135.632,99.048ZM126.7,80.394l2.5,4.5a.452.452,0,0,1,0,.412l-2.362,3.768,6.77-4.3Z" transform="translate(0)" fill="#001f4e" fill-rule="evenodd"/>
  </g>
</svg>
