<?xml version="1.0" encoding="UTF-8"?><svg id="Layer_1" xmlns="http://www.w3.org/2000/svg" viewBox="0 0 17.23 19.24"><defs><style>.cls-1{fill:#5822b9;}.cls-2{fill:#3d0ba5;}.cls-3{fill:none;stroke:#001f4e;stroke-miterlimit:10;stroke-width:.5px;}.cls-4{fill:#2f5ccf;}.cls-5{fill:#7f56ce;}</style></defs><path class="cls-1" d="m0,10.2s.02.01.03.02c0,0-.02.01-.03.02,0-.01,0-.03,0-.04Z"/><path class="cls-3" d="m16.88,2.62c.2.08.05.16,0,.22-.25.28-.51.54-.76.81-1.26,1.36-2.52,2.71-3.78,4.07-1.08,1.16-2.15,2.32-3.23,3.48-1.44,1.55-2.88,3.1-4.31,4.65-.85.92-1.7,1.84-2.55,2.76-.1.11-.21.22-.36.08-.13-.12-.08-.24.02-.38.48-.66.95-1.33,1.42-2,.68-.96,1.37-1.93,2.06-2.89.43-.6.85-1.21,1.28-1.81.45-.64.9-1.27,1.35-1.9.72-1.01,1.43-2.03,2.15-3.04.69-.98,1.39-1.95,2.09-2.92.11-.16.22-.32.33-.47.27-.36.63-.56,1.07-.62.04,0,.08,0,.11,0,.03,0,.06,0,.08,0,.02,0,.05,0,.07,0,.03,0,.06,0,.09,0,.03,0,.07,0,.1,0,.02,0,.03,0,.05,0,.91,0,1.82-.02,2.73-.03Z"/><path class="cls-3" d="m9.07,13.53c.15-.17.31-.34.46-.5.17-.03.17.13.23.21.59.81,1.17,1.62,1.75,2.43.54.76,1.09,1.52,1.62,2.28.24.34.47.7.71,1.05-.11,0-.22,0-.33,0-.85,0-1.71,0-2.56,0-.01,0-.03,0-.04,0-.48,0-.83-.26-1.1-.62-.35-.46-.7-.92-1.03-1.4-.3-.44-.56-.9-.83-1.35,0-.06,0-.13,0-.19-.02-.5.14-.92.51-1.26.21-.2.41-.42.61-.64Z"/><path class="cls-3" d="m10.31,2.69c0,.12,0,.23,0,.35-.02.41-.26.72-.49,1.04-.31.44-.61.88-.92,1.32-.03,0-.05,0-.08,0,0,0,0,0,0,0-.03-.03-.05-.06-.08-.08-.05-.09-.11-.18-.16-.27-.06-.1-.12-.19-.18-.29-.61-.85-1.22-1.7-1.83-2.54-.36-.5-.73-1-1.1-1.5-.09-.14-.18-.27-.29-.44.09-.01.16-.03.23-.03.85,0,1.69,0,2.54,0,.48,0,.89.16,1.19.54.34.43.68.87.98,1.33.11.16.12.38.17.57Z"/><path class="cls-5" d="m12.87,16.76s0-.02,0-.03c.01,0,.03,0,.04,0-.01.01-.03.02-.04.03Z"/><path class="cls-4" d="m13.76,2.65s.06,0,.08,0c-.03,0-.06,0-.08,0Z"/><path class="cls-4" d="m13.91,2.65s.06,0,.09,0c-.03,0-.06,0-.09,0Z"/><path class="cls-4" d="m14.1,2.65s.03,0,.05,0c-.02,0-.03,0-.05,0Z"/><path class="cls-2" d="m6.74,9.01s-.05,0-.08,0c.03,0,.05,0,.08,0Z"/></svg>