<svg id="PopTok_-_TikTok_Clone" data-name="PopTok - TikTok Clone" xmlns="http://www.w3.org/2000/svg" width="19.936" height="19.936" viewBox="0 0 19.936 19.936">
  <g id="Group_559" data-name="Group 559" transform="translate(3.843 2.967)">
    <path id="Path_379" data-name="Path 379" d="M103.139,90.194a4.439,4.439,0,0,1,0-8.878,4.225,4.225,0,0,1,.666.051.293.293,0,0,1,.249.288V83.87a.3.3,0,0,1-.121.238.292.292,0,0,1-.265.039,1.639,1.639,0,0,0-.53-.086,1.69,1.69,0,0,0,0,3.38,1.639,1.639,0,0,0,.53-.086,1.687,1.687,0,0,0,1.156-1.6V76.492a.294.294,0,0,1,.292-.292h2.165a.294.294,0,0,1,.292.292,3.081,3.081,0,0,0,3.08,3.076.294.294,0,0,1,.292.292v2.173a.294.294,0,0,1-.292.292,5.811,5.811,0,0,1-2.27-.459,6.131,6.131,0,0,1-.81-.421v4.334a4.441,4.441,0,0,1-3.769,4.369A4.742,4.742,0,0,1,103.139,90.194Zm0-8.286a3.851,3.851,0,0,0,0,7.7,4.112,4.112,0,0,0,.58-.043,3.858,3.858,0,0,0,3.275-3.792v-4.89a.292.292,0,0,1,.471-.23,5.214,5.214,0,0,0,2.9,1.079V80.152a3.671,3.671,0,0,1-3.36-3.356h-1.6v8.975a2.273,2.273,0,0,1-1.557,2.149,2.245,2.245,0,0,1-.716.117,2.274,2.274,0,1,1,0-4.548,2.323,2.323,0,0,1,.331.023V81.924A3.015,3.015,0,0,0,103.139,81.908Z" transform="translate(-98.7 -76.2)" fill="#001f4e"/>
  </g>
  <path id="Path_380" data-name="Path 380" d="M.584,88.79v14.738a.877.877,0,0,0,.876.876H18.475a.877.877,0,0,0,.876-.876V99.334a.292.292,0,1,1,.584,0v4.193a1.461,1.461,0,0,1-1.46,1.46H1.46A1.461,1.461,0,0,1,0,103.527V88.79a.292.292,0,1,1,.584,0Z" transform="translate(0 -85.052)" fill="#001f4e"/>
  <path id="Path_381" data-name="Path 381" d="M0,1.8V1.46A1.461,1.461,0,0,1,1.46,0H18.475a1.461,1.461,0,0,1,1.46,1.46V12.355a.292.292,0,1,1-.584,0V1.46a.877.877,0,0,0-.876-.876H1.46a.877.877,0,0,0-.876.876V1.8a.294.294,0,0,1-.292.292A.294.294,0,0,1,0,1.8Z" fill="#001f4e"/>
</svg>
