<svg xmlns="http://www.w3.org/2000/svg" width="18.146" height="16.831" viewBox="0 0 18.146 16.831">
  <g id="QMarket_-_Online_Marketplace_Builder" data-name="QMarket - Online Marketplace Builder" transform="translate(-0.001 -0.5)">
    <path id="Path_392" data-name="Path 392" d="M15.7,2.966a8.317,8.317,0,0,0-11.822,0A8.39,8.39,0,0,0,1.432,8.916a8.487,8.487,0,0,0,.874,3.75A3.505,3.505,0,0,1,.321,14.979a.532.532,0,0,0-.19.837,3.7,3.7,0,0,0,5.317.293A8.317,8.317,0,0,0,15.7,14.865a8.457,8.457,0,0,0,0-11.9ZM9.79,16.268a7.214,7.214,0,0,1-4.119-1.283h0a.531.531,0,0,0-.71.1,2.639,2.639,0,0,1-3.515.492A4.576,4.576,0,0,0,3.39,12.708a.53.53,0,0,0-.056-.369A7.415,7.415,0,0,1,2.5,8.916,7.295,7.295,0,1,1,9.79,16.268Zm0,0" transform="translate(0 0)" fill="#001f4e"/>
    <path id="Path_393" data-name="Path 393" d="M153.331,116.339a3.884,3.884,0,1,0-.754.749l1.458,1.458a.532.532,0,1,0,.752-.752Zm-5.089-.362a2.825,2.825,0,1,1,2,.828,2.807,2.807,0,0,1-2-.828Zm0,0" transform="translate(-141.164 -105.706)" fill="#001f4e"/>
  </g>
</svg>
