<?xml version="1.0" encoding="UTF-8"?><svg id="Layer_1" xmlns="http://www.w3.org/2000/svg" viewBox="0 0 19.12 19.13"><defs><style>.cls-1,.cls-2{fill:#001f4e;}.cls-2{fill-rule:evenodd;}</style></defs><path class="cls-1" d="m6.63,18.66c4.75,1.53,9.63-.86,11.6-5.07,1.69-3.62.97-8.09-2.12-11-1.78-1.67-4.11-2.6-6.55-2.6C4.29,0,0,4.29,0,9.56c0,3.19,1.57,6.04,4.01,7.78.17.12.41.08.54-.09s.08-.41-.09-.54c-2.31-1.65-3.68-4.32-3.68-7.15C.77,4.71,4.71.77,9.56.77s8.47,3.61,8.77,8.21c.4,6.29-5.66,10.8-11.46,8.94-.2-.07-.42.05-.49.25-.07.2.05.42.25.49h0Z"/><path class="cls-2" d="m6.59,14.63h0c-.3-.1-.5-.33-.63-.56-.15-.28-.19-.62-.19-.96,0-.23.02-.5.05-.82h0s0-.02,0-.02c.04-.32.08-.63.12-.93h0s0-.02,0-.02c.08-.48.15-1.02.2-1.61h0s0,0,0,0c.07-.58.1-1.15.1-1.71,0-.2,0-.4-.01-.62-.11-.02-.23-.06-.33-.14-.15-.1-.23-.24-.28-.37v-.03s-.02-.03-.02-.03c-.05-.17-.07-.35-.07-.53,0-.41.1-.8.35-1.12h0s0,0,0,0c.22-.28.53-.5.88-.69.45-.25.94-.44,1.45-.55.5-.12.99-.18,1.46-.18.69,0,1.32.12,1.89.38.57.26,1.03.63,1.36,1.13.34.51.5,1.11.5,1.76s-.16,1.29-.5,1.84c-.31.52-.72.95-1.22,1.28h0s0,0,0,0c-.23.15-.46.28-.69.38.02.03.04.06.06.08.18.23.35.44.52.62.5.52.94.7,1.31.7.14,0,.24,0,.32-.02.14-.02.29,0,.44.06.12.06.2.14.26.22.1.12.15.25.17.35.03.11.03.23.03.33,0,.27-.06.54-.16.8h0s0,0,0,0c-.13.3-.34.55-.61.73-.32.22-.71.3-1.11.3-.53,0-1.02-.18-1.46-.5h0s0,0,0,0c-.4-.3-.76-.67-1.09-1.1h0s0,0,0,0c-.32-.43-.6-.88-.85-1.35h0s0,0,0,0c-.16-.32-.31-.63-.44-.92,0,.14,0,.28,0,.41,0,.31.03.57.07.79.04.15.12.27.24.39h0s0,.01,0,.01c.22.22.38.51.38.86,0,.47-.28.83-.62,1.07-.37.27-.83.38-1.31.38-.18,0-.37-.03-.54-.09h0Zm1.28-2.48c-.06-.27-.09-.58-.09-.93,0-.4.02-.84.06-1.33.05-.49.1-.98.16-1.48.11-.84.18-1.58.21-2.23.48-.14.94-.21,1.37-.21.54,0,.99.11,1.36.34.38.23.57.59.57,1.09,0,.46-.16.83-.49,1.12s-.76.43-1.28.43c-.28,0-.49.01-.64.04-.14.03-.25.08-.33.16-.11.11-.16.25-.16.42,0,.1.01.2.04.31.03.1.06.2.1.31.16.38.35.79.58,1.24.24.45.51.88.81,1.28.3.4.62.73.97.99.36.26.73.39,1.12.39.33,0,.59-.06.78-.19s.32-.29.4-.48c.08-.2.12-.39.12-.58,0-.16-.02-.26-.07-.31-.04-.06-.09-.08-.15-.07-.12.02-.26.03-.42.03-.59,0-1.16-.29-1.73-.88-.19-.2-.38-.42-.57-.67-.06-.08-.11-.15-.16-.23-.12-.17-.24-.34-.35-.52.2-.04.39-.1.58-.18.24-.1.47-.22.7-.38.43-.29.78-.66,1.05-1.11.28-.45.42-.96.42-1.54s-.13-1.04-.4-1.43-.64-.71-1.12-.93-1.03-.33-1.64-.33c-.42,0-.86.05-1.33.16-.46.1-.89.26-1.3.49-.31.16-.54.34-.7.54-.15.19-.22.44-.22.76,0,.14.01.26.04.37.02.05.04.08.07.1.04.03.08.04.14.04.05,0,.11,0,.18-.03.08-.03.15-.06.21-.09.03.2.05.4.06.61,0,.02,0,.03,0,.05,0,.23.01.45.01.66,0,.59-.03,1.18-.1,1.78-.06.6-.13,1.14-.21,1.64-.04.3-.08.61-.12.93-.03.31-.04.56-.04.76,0,.31.04.54.12.69s.18.24.3.28c.13.04.25.06.37.06.4,0,.72-.09.97-.27.25-.18.37-.38.37-.6,0-.16-.07-.31-.21-.45-.2-.19-.33-.41-.4-.67h0Zm.9-5.5c-.04.56-.1,1.17-.19,1.84,0,.04,0,.07-.01.11.13-.08.26-.12.4-.15h0s0,0,0,0c.21-.04.47-.06.76-.06.42,0,.7-.11.9-.29.2-.17.29-.38.29-.68,0-.32-.11-.48-.29-.59h0s0,0,0,0c-.26-.16-.6-.26-1.05-.26-.26,0-.53.03-.82.09Z"/></svg>