<?xml version="1.0" encoding="UTF-8"?><svg id="Layer_1" xmlns="http://www.w3.org/2000/svg" viewBox="0 0 19.62 19.62"><defs><style>.cls-1{fill:#001f4e;}.cls-2{fill:none;stroke:#001f4e;stroke-linecap:round;stroke-linejoin:round;stroke-width:.5px;}</style></defs><path class="cls-2" d="m5.37,7.24l.36-2.06h5.44s2.38-.27,3.34,2.23c0,0,.72,2.53-1.91,3.77l2.37,4.29-2.71.02s-.44-.06-.99-.64c0,0-1.32-2.72-1.88-3.06.05.03-.61-.45-1.36-.38l-3.35-.02.35-2.04,4.95-.03.04.69,1.69-1.63-1.68-1.6-.03.49-4.61-.03Z"/><path class="cls-1" d="m6.81,19.15c4.87,1.56,9.88-.88,11.9-5.2,1.73-3.71.99-8.3-2.18-11.28-1.83-1.72-4.21-2.66-6.72-2.66C4.4,0,0,4.4,0,9.81c0,3.27,1.61,6.2,4.11,7.98.18.13.43.09.55-.09s.09-.43-.09-.55c-2.37-1.69-3.78-4.43-3.78-7.34C.79,4.84,4.84.79,9.81.79s8.69,3.7,9,8.43c.41,6.46-5.81,11.08-11.75,9.17-.21-.07-.43.05-.5.26-.07.21.05.43.26.5h0Z"/></svg>