<svg id="Group_493" data-name="Group 493" xmlns="http://www.w3.org/2000/svg" width="21.496" height="22.966" viewBox="0 0 21.496 22.966">
  <g id="Group_474" data-name="Group 474" transform="translate(14.834 11.483)">
    <path id="Path_292" data-name="Path 292" d="M40,30.7h1.022v7.4H40Z" transform="translate(-40 -30.7)" fill="#001f4e"/>
  </g>
  <g id="Group_475" data-name="Group 475" transform="translate(5.64 11.483)">
    <path id="Path_293" data-name="Path 293" d="M17.5,30.7h1.022v7.4H17.5Z" transform="translate(-17.5 -30.7)" fill="#001f4e"/>
  </g>
  <g id="Group_476" data-name="Group 476" transform="translate(3.923 6.784)">
    <path id="Path_294" data-name="Path 294" d="M26.255,25.9l-6.13-5.353L13.995,25.9l-.695-.776L20.125,19.2l6.825,5.925Z" transform="translate(-13.3 -19.2)" fill="#001f4e"/>
  </g>
  <g id="Group_477" data-name="Group 477" transform="translate(3.228 18.349)">
    <path id="Path_295" data-name="Path 295" d="M26.639,52.118H11.6L12.826,47.5H25.413Zm-13.69-1.062H25.331l-.695-2.534H13.6Z" transform="translate(-11.6 -47.5)" fill="#001f4e"/>
  </g>
  <g id="Group_478" data-name="Group 478" transform="translate(0 0)">
    <path id="Path_296" data-name="Path 296" d="M20.619,21.888l-.572-.858a9.273,9.273,0,0,0,4.087-7.764,9.706,9.706,0,0,0-19.411.041,9.484,9.484,0,0,0,4.087,7.764l-.572.858A10.319,10.319,0,0,1,3.7,13.348a10.75,10.75,0,0,1,18.349-7.6,10.664,10.664,0,0,1,3.147,7.6,10.34,10.34,0,0,1-4.577,8.541Z" transform="translate(-3.7 -2.6)" fill="#001f4e"/>
  </g>
</svg>
