<?xml version="1.0" encoding="UTF-8"?>
<svg id="Layer_1" xmlns="http://www.w3.org/2000/svg" viewBox="0 0 512 512">
  <g>
    <path d="M214.24,263.38h27.84c3.84,0,6.96-3.12,6.96-6.96v-27.84c0-3.84-3.12-6.96-6.96-6.96h-27.84c-3.84,0-6.96,3.12-6.96,6.96v27.84c0,3.84,3.12,6.96,6.96,6.96ZM221.2,235.54h13.92v13.92h-13.92v-13.92Z" fill="#17234c"/>
    <path d="M269.92,263.38h27.84c3.84,0,6.96-3.12,6.96-6.96v-27.84c0-3.84-3.12-6.96-6.96-6.96h-27.84c-3.84,0-6.96,3.12-6.96,6.96v27.84c0,3.84,3.12,6.96,6.96,6.96ZM276.88,235.54h13.92v13.92h-13.92v-13.92Z" fill="#17234c"/>
    <path d="M249.04,312.1v-27.84c0-3.84-3.12-6.96-6.96-6.96h-27.84c-3.84,0-6.96,3.12-6.96,6.96v27.84c0,3.84,3.12,6.96,6.96,6.96h27.84c3.84,0,6.96-3.12,6.96-6.96ZM235.12,305.14h-13.92v-13.92h13.92v13.92Z" fill="#17234c"/>
    <path d="M269.92,319.06h27.84c3.84,0,6.96-3.12,6.96-6.96v-27.84c0-3.84-3.12-6.96-6.96-6.96h-27.84c-3.84,0-6.96,3.12-6.96,6.96v27.84c0,3.84,3.12,6.96,6.96,6.96ZM276.88,291.22h13.92v13.92h-13.92v-13.92Z" fill="#17234c"/>
    <path d="M102.88,395.62h76.56c0,3.84,3.12,6.96,6.96,6.96h139.2c3.84,0,6.96-3.12,6.96-6.96h76.56c3.84,0,6.96-3.12,6.96-6.96v-111.36c0-3.84-3.12-6.96-6.96-6.96h-76.56v-76.56c0-3.84-3.12-6.96-6.96-6.96h-139.2c-3.84,0-6.96,3.12-6.96,6.96v76.56h-76.56c-3.84,0-6.96,3.12-6.96,6.96v111.36c0,3.84,3.12,6.96,6.96,6.96ZM332.56,284.26h69.6v97.44h-69.6v-97.44ZM276.88,388.66h-41.76v-34.8h41.76v34.8ZM193.36,200.74h125.28v187.92h-27.84v-41.76c0-3.84-3.12-6.96-6.96-6.96h-55.68c-3.84,0-6.96,3.12-6.96,6.96v41.76h-27.84v-187.92ZM109.84,284.26h69.6v97.44h-69.6v-97.44Z" fill="#17234c"/>
    <rect x="123.76" y="308.62" width="13.92" height="13.92" fill="#17234c"/>
    <rect x="151.6" y="308.62" width="13.92" height="13.92" fill="#17234c"/>
    <rect x="123.76" y="343.42" width="13.92" height="13.92" fill="#17234c"/>
    <rect x="151.6" y="343.42" width="13.92" height="13.92" fill="#17234c"/>
    <rect x="346.48" y="308.62" width="13.92" height="13.92" fill="#17234c"/>
    <rect x="374.32" y="308.62" width="13.92" height="13.92" fill="#17234c"/>
    <rect x="346.48" y="343.42" width="13.92" height="13.92" fill="#17234c"/>
    <rect x="374.32" y="343.42" width="13.92" height="13.92" fill="#17234c"/>
  </g>
  <g>
    <path d="M215.81,151.87v5.47c0,4.05.71,5.06,2.23,5.06,1.42,0,1.92-1.42,1.92-3.95,0-5.06-.61-6.58-6.78-12.35-8.2-7.69-12.05-11.64-12.05-21.46,0-10.83,4.05-19.13,17.11-19.13,14.37,0,16.91,8.81,16.91,17.92v4.15h-14.17v-5.16c0-3.44-.61-4.35-2.13-4.35-1.21,0-1.92,1.01-1.92,4.05,0,3.54.61,4.96,5.67,9.52,9.21,8.2,13.56,12.45,13.56,23.18,0,12.35-3.75,20.14-18.02,20.14-12.75,0-17.61-6.98-17.61-19.03v-4.05h15.29Z" fill="#17234c"/>
    <path d="M246.48,119.78h-8v-13.26h31.99v13.26h-8v54.16h-15.99v-54.16Z" fill="#17234c"/>
    <path d="M311.17,124.14v32.19c0,13.67-7.49,18.63-19.23,18.63s-18.02-5.36-18.02-18.63v-33c0-12.45,7.69-17.82,18.42-17.82s18.83,5.47,18.83,18.63ZM290.01,122.21v36.04c0,2.53.71,4.05,2.43,4.05,1.52,0,2.43-1.32,2.43-4.05v-36.14c0-3.04-.71-3.95-2.53-3.95-1.52,0-2.33,1.01-2.33,4.05Z" fill="#17234c"/>
  </g>
  <circle cx="256" cy="263.59" r="230.79" fill="none" stroke="#18234c" stroke-miterlimit="10" stroke-width="11"/>
</svg>