<?xml version="1.0" encoding="UTF-8"?><svg id="Layer_1" xmlns="http://www.w3.org/2000/svg" viewBox="0 0 18.46 18.47"><defs><style>.cls-1{fill:none;stroke:#001f4e;stroke-miterlimit:10;stroke-width:.5px;}.cls-2{fill:#001f4e;}</style></defs><path class="cls-1" d="m12.82,4.53l2.3,3.22s.43,1.09-.3,2.21c-.03.02-2.45,3.95-6.67,4.75.02.02-1.81.32-2.4-.66-.02.02-2.11-2.94-2.11-2.94,0,0-.94-1.09,0-2.48-.05.03,2.32-4.15,7.41-4.91-.02,0,1.09-.14,1.78.82Z"/><ellipse class="cls-1" cx="8.92" cy="8.62" rx="3.99" ry="1.62" transform="translate(-3.26 6.29) rotate(-33.18)"/><path class="cls-2" d="m6.41,18.02c4.59,1.47,9.3-.83,11.2-4.9,1.63-3.49.93-7.81-2.05-10.62-1.72-1.62-3.96-2.51-6.33-2.51C4.14,0,0,4.14,0,9.23c0,3.08,1.51,5.83,3.87,7.51.17.12.4.08.52-.09s.08-.4-.09-.52c-2.23-1.59-3.56-4.17-3.56-6.91C.75,4.55,4.55.75,9.23.75s8.18,3.48,8.47,7.93c.39,6.08-5.46,10.43-11.06,8.63-.2-.06-.41.04-.47.24-.06.2.04.41.24.47h0Z"/></svg>