<?xml version="1.0" encoding="UTF-8"?>
<svg id="Layer_1" xmlns="http://www.w3.org/2000/svg" viewBox="0 0 512 512">
  <g id="Layer_25">
    <path d="M409.39,410.6c84.4-84.84,84.4-221.93,0-306.78h0c-84.84-84.4-221.93-84.4-306.78,0h0c-84.4,84.84-84.4,221.93,0,306.78h0c84.84,84.4,221.93,84.4,306.78,0h0s-.1.1,0,0ZM59.11,267.57h20.71c2.31,39.41,17.85,76.89,44.12,106.37l-14.6,14.71c-30.15-33.4-47.88-76.15-50.23-121.07ZM109.34,125.78l14.6,14.71c-26.27,29.47-41.82,66.95-44.12,106.37h-20.71c2.35-44.93,20.09-87.68,50.23-121.07ZM452.16,246.85h-20.71c-2.31-39.41-17.85-76.89-44.12-106.37l14.6-14.71c30.15,33.4,47.88,76.15,50.23,121.07ZM255.38,412.57c-85.8,0-155.36-69.56-155.36-155.36S169.58,101.86,255.38,101.86s155.36,69.56,155.36,155.36-69.56,155.36-155.36,155.36ZM372.1,125.78c-29.47-26.27-66.95-41.82-106.37-44.12v-20.71c44.93,2.35,87.68,20.09,121.07,50.23l-14.71,14.6ZM245.02,81.66c-39.41,2.31-76.89,17.85-106.37,44.12l-14.71-14.6c33.4-30.15,76.15-47.88,121.07-50.23v20.71ZM138.65,388.64c29.4,26.46,66.89,42.19,106.37,44.64v20.71c-44.99-2.49-87.75-20.42-121.07-50.75l14.71-14.6ZM265.74,433.28c39.41-2.31,76.89-17.85,106.37-44.12l14.71,14.6c-33.4,30.15-76.15,47.88-121.07,50.23v-20.71ZM386.81,374.45c26.56-29.54,42.3-67.23,44.64-106.89h20.71c-2.49,44.99-20.42,87.75-50.75,121.07l-14.6-14.19Z" fill="#18234c"/>
  </g>
  <g id="_x30_1_Setting">
    <path d="M196.77,243.59l51.4-95.9c1.42-2.65,4.19-4.31,7.2-4.31h.02c3.02,0,5.79,1.68,7.2,4.34l51.4,96.85c1.91,3.61.72,8.49-2.86,10.74l-52.9,33.32c-1.33.84-2.84,1.26-4.35,1.26-1.62,0-3.23-.48-4.63-1.44-30.95-21.31-50.03-34.28-50.81-34.99-2.63-2.42-3.38-6.68-1.67-9.87ZM291.45,248.41l-37.5-23.62-35.25,22.86,35.38,24.3,37.37-23.54ZM226.19,223.31l23.24-15.07c2.86-1.85,6.49-1.52,8.8-.06l26.95,16.97-29.84-56.24-29.16,54.39ZM312.73,276.12c2.58,2.75,2.95,6.91.89,10.07l-52.9,81.15c-1.51,2.31-4.08,3.71-6.84,3.71h-.11c-2.8-.04-5.39-1.51-6.85-3.89l-49.9-81.15c-1.97-3.21-1.49-7.35,1.16-10.03,2.66-2.67,6.8-3.19,10.03-1.24l45.8,27.63,48.74-27.74c3.27-1.87,7.4-1.25,9.99,1.5ZM281.53,305.49l-23.61,13.43c-2.57,1.46-5.73,1.43-8.26-.11l-21.1-12.73,25.53,41.51,27.45-42.11Z" fill="#18234c"/>
  </g>
</svg>