<?xml version="1.0" encoding="UTF-8"?><svg id="Layer_1" xmlns="http://www.w3.org/2000/svg" viewBox="0 0 19.12 19.13"><defs><style>.cls-1{fill:none;stroke:#001f4e;stroke-linecap:round;stroke-linejoin:round;}.cls-2{fill:#001f4e;}</style></defs><path class="cls-2" d="m6.63,18.66c4.75,1.53,9.63-.86,11.6-5.07,1.69-3.62.97-8.09-2.12-11-1.78-1.67-4.11-2.6-6.55-2.6C4.29,0,0,4.29,0,9.56c0,3.19,1.57,6.04,4.01,7.78.17.12.41.08.54-.09s.08-.41-.09-.54c-2.31-1.65-3.68-4.32-3.68-7.15C.77,4.71,4.71.77,9.56.77s8.47,3.61,8.77,8.21c.4,6.29-5.66,10.8-11.46,8.94-.2-.07-.42.05-.49.25-.07.2.05.42.25.49h0Z"/><path class="cls-1" d="m6.11,6.45s2.26.13,3.33-.98c.03.01,1.55,1.01,3.5,1.07.01.03.06,3.29.06,3.29,0,0,.09,2.49-3.44,3.83,0,0-1.51-.26-2.54-1.52-.52-.63-.78-1.43-.79-2.25-.02-1.14-.12-3.44-.12-3.44Z"/></svg>