<svg xmlns="http://www.w3.org/2000/svg" width="21.603" height="19.631" viewBox="0 0 21.603 19.631">
  <g id="Udify_-_Udemy_Clone" data-name="Udify - Udemy Clone" transform="translate(0 -23.339)">
    <path id="Path_388" data-name="Path 388" d="M21.108,113.485h-.347v-11.17a2.073,2.073,0,0,0-2.071-2.071H17.566a.317.317,0,1,0,0,.634H18.69a1.439,1.439,0,0,1,1.437,1.437v11.17H13.043a.652.652,0,0,0-.54.285l-.1.14a.473.473,0,0,1-.392.207H9.543a.473.473,0,0,1-.392-.207l-.095-.14a.652.652,0,0,0-.54-.286H5.141a.317.317,0,1,0,0,.634H8.517a.019.019,0,0,1,.016.008l.1.14a1.107,1.107,0,0,0,.916.484h2.473a1.107,1.107,0,0,0,.916-.484l.1-.14a.019.019,0,0,1,.016-.008h7.926v.343a1.531,1.531,0,0,1-1.53,1.53H2.163a1.531,1.531,0,0,1-1.53-1.53v-.343H3.79a.317.317,0,1,0,0-.634H1.475v-11.17a1.439,1.439,0,0,1,1.437-1.437h.935a.317.317,0,1,0,0-.634H2.912a2.073,2.073,0,0,0-2.071,2.071v11.17H.494A.5.5,0,0,0,0,113.98v.482a2.166,2.166,0,0,0,2.163,2.163H19.439a2.166,2.166,0,0,0,2.163-2.163v-.482A.5.5,0,0,0,21.108,113.485Z" transform="translate(0 -73.657)" fill="#001f4e"/>
    <path id="Path_389" data-name="Path 389" d="M52.634,132.878h2.041a.317.317,0,0,0,0-.634H52.634a.719.719,0,0,0-.719.719V143.1a.317.317,0,0,0,.317.317H68.813a.317.317,0,0,0,.317-.317v-2.682a.317.317,0,1,0-.634,0v2.365H52.549v-9.818a.085.085,0,0,1,.085-.085Z" transform="translate(-49.721 -104.304)" fill="#001f4e"/>
    <path id="Path_390" data-name="Path 390" d="M412.595,132.963a.719.719,0,0,0-.719-.719H410.85a.317.317,0,1,0,0,.634h1.026a.085.085,0,0,1,.085.085v6.1a.317.317,0,0,0,.634,0Z" transform="translate(-393.186 -104.304)" fill="#001f4e"/>
    <path id="Path_391" data-name="Path 391" d="M116.623,27.479l.748.4v2.951a1.961,1.961,0,0,0,1.959,1.959h5.59a1.961,1.961,0,0,0,1.959-1.959V27.857l.459-.247v5.642a1.152,1.152,0,1,0,.634,0V26.831h0a.734.734,0,0,0-.388-.648l-5.133-2.756a.733.733,0,0,0-.7,0l-5.133,2.756a.735.735,0,0,0,0,1.3Zm11.551,6.882a.518.518,0,1,1-.518-.518A.519.519,0,0,1,128.173,34.36Zm-11.251-7.619,5.133-2.756a.1.1,0,0,1,.1,0l5.133,2.756a.1.1,0,0,1,0,.179l-5.133,2.756a.1.1,0,0,1-.1,0L120.6,28.9a.317.317,0,0,0-.3.558l1.454.781a.733.733,0,0,0,.7,0l3.794-2.037v2.634a1.327,1.327,0,0,1-1.325,1.325h-5.59A1.327,1.327,0,0,1,118,30.832V28.22l1.069.574a.317.317,0,1,0,.3-.558l-2.451-1.316a.1.1,0,0,1,0-.179Z" transform="translate(-111.324)" fill="#001f4e"/>
  </g>
</svg>
