<svg xmlns="http://www.w3.org/2000/svg" width="20.895" height="17.412" viewBox="0 0 20.895 17.412">
  <g id="Watchit_-_Youtube_Clone" data-name="Watchit - Youtube Clone" transform="translate(0 -42.667)">
    <g id="Group_561" data-name="Group 561" transform="translate(0 42.667)">
      <g id="Group_560" data-name="Group 560" transform="translate(0 0)">
        <path id="Path_382" data-name="Path 382" d="M16.106,42.667H4.788A4.793,4.793,0,0,0,0,47.455v7.835a4.793,4.793,0,0,0,4.788,4.788H16.106a4.793,4.793,0,0,0,4.788-4.788V47.455A4.793,4.793,0,0,0,16.106,42.667Zm3.918,12.624a3.923,3.923,0,0,1-3.918,3.918H4.788A3.923,3.923,0,0,1,.871,55.291V47.455a3.923,3.923,0,0,1,3.918-3.918H16.106a3.923,3.923,0,0,1,3.918,3.918v7.835Z" transform="translate(0 -42.667)" fill="#001f4e"/>
      </g>
    </g>
    <g id="Group_563" data-name="Group 563" transform="translate(7.433 46.572)">
      <g id="Group_562" data-name="Group 562" transform="translate(0 0)">
        <path id="Path_383" data-name="Path 383" d="M199.46,153.725l-6.721-4.32a.479.479,0,0,0-.739.4v8.641a.481.481,0,0,0,.25.421.489.489,0,0,0,.23.059.475.475,0,0,0,.26-.077l6.721-4.32a.479.479,0,0,0,0-.806Zm-6.5,3.844v-6.882l5.352,3.441Z" transform="translate(-192 -149.327)" fill="#001f4e"/>
      </g>
    </g>
  </g>
</svg>
