<?xml version="1.0" encoding="UTF-8"?>
<svg id="Layer_1" xmlns="http://www.w3.org/2000/svg" viewBox="0 0 512 512">
  <path d="M359,136.34c14.98-3.38,28.77-7.47,41.12-12.16,3.44-1.31,5.98-4.28,6.73-7.89s-.4-7.34-3.05-9.92c-38.19-37.17-90.35-60.06-147.8-60.06s-109.28,22.77-147.47,59.73c-2.64,2.56-3.79,6.3-3.06,9.9.75,3.61,3.26,6.58,6.7,7.91,12.25,4.7,25.96,8.83,40.82,12.23,5.81,1.34,11.58-2.3,12.92-8.09,1.34-5.81-2.3-11.58-8.09-12.92-7.23-1.65-14.14-3.48-20.74-5.48,32.61-26.1,73.96-41.72,118.92-41.72s86.58,15.72,119.22,41.97c-6.67,2-13.67,3.82-20.97,5.48-5.81,1.32-9.46,7.09-8.15,12.89,1.32,5.81,7.1,9.46,12.89,8.14h0Z" fill="#17234c" fill-rule="evenodd"/>
  <path d="M354.25,401.32c7.3,1.64,14.32,3.48,20.98,5.48-32.66,26.25-74.12,41.97-119.24,41.97s-86.31-15.62-118.91-41.72c6.58-2,13.5-3.82,20.73-5.48,5.79-1.34,9.43-7.11,8.09-12.92-1.34-5.79-7.11-9.43-12.92-8.09-14.86,3.41-28.57,7.53-40.82,12.23-3.44,1.31-5.95,4.3-6.7,7.91-.73,3.61.42,7.33,3.06,9.9,38.19,36.97,90.19,59.73,147.47,59.73s109.61-22.9,147.8-60.06c2.64-2.57,3.79-6.31,3.05-9.92s-3.29-6.58-6.73-7.89c-12.35-4.69-26.14-8.78-41.12-12.17-5.79-1.31-11.57,2.34-12.89,8.15-1.31,5.79,2.34,11.57,8.15,12.89h0Z" fill="#17234c" fill-rule="evenodd"/>
  <path d="M256,40.98c-119.94,0-217.32,97.38-217.32,217.32s97.38,217.32,217.32,217.32,217.32-97.38,217.32-217.32S375.94,40.98,256,40.98h0ZM256,63.08c107.74,0,195.22,87.48,195.22,195.22s-87.48,195.22-195.22,195.22S60.78,366.05,60.78,258.3,148.26,63.08,256,63.08h0Z" fill="#17234c" fill-rule="evenodd"/>
  <path d="M54.79,269.08h71.86c5.95,0,10.78-4.83,10.78-10.78s-4.83-10.78-10.78-10.78H54.79c-5.95,0-10.78,4.83-10.78,10.78s4.83,10.78,10.78,10.78Z" fill="#17234c" fill-rule="evenodd"/>
  <path d="M385.37,269.08h71.86c5.95,0,10.78-4.83,10.78-10.78s-4.83-10.78-10.78-10.78h-71.86c-5.95,0-10.78,4.83-10.78,10.78s4.83,10.78,10.78,10.78Z" fill="#17234c" fill-rule="evenodd"/>
  <path d="M359.08,179.7c0-6.67-2.64-13.08-7.37-17.79-4.71-4.71-11.11-7.36-17.78-7.36h-154.81c-6.67,0-13.07,2.64-17.79,7.36-4.71,4.71-7.36,11.12-7.36,17.79v279.83c0,5.95,4.83,10.78,10.78,10.78h183.56c5.95,0,10.78-4.83,10.78-10.78V179.7ZM337.52,179.7v269.05h-162V179.7c0-.96.37-1.87,1.05-2.54s1.58-1.05,2.54-1.05h154.81c.95,0,1.87.37,2.54,1.05s1.05,1.58,1.05,2.54Z" fill="#17234c" fill-rule="evenodd"/>
  <path d="M336,136.22c0-6.94-2.86-13.57-7.92-18.33-5.04-4.74-11.83-7.2-18.76-6.78l-108.4,6.58c-13.28.8-23.63,11.8-23.63,25.1v22.54c0,5.95,4.83,10.78,10.78,10.78h137.15c5.95,0,10.78-4.83,10.78-10.78v-29.11ZM314.44,136.22v18.33h-115.59v-11.76c0-1.9,1.48-3.46,3.38-3.58l108.4-6.58c.99-.06,1.95.29,2.67.98.73.68,1.14,1.62,1.14,2.62Z" fill="#17234c" fill-rule="evenodd"/>
  <path d="M439.67,448.75H73.16c-5.95,0-10.78,4.83-10.78,10.78s4.83,10.78,10.78,10.78h366.51c5.95,0,10.78-4.83,10.78-10.78s-4.83-10.78-10.78-10.78Z" fill="#17234c" fill-rule="evenodd"/>
  <path d="M246.47,201.46c0-5.95-4.81-10.78-10.78-10.78h-32.77c-5.95,0-10.78,4.83-10.78,10.78v32.77c0,5.95,4.83,10.78,10.78,10.78h32.77c5.96,0,10.78-4.83,10.78-10.78v-32.77ZM224.91,212.24v11.21h-11.21v-11.21h11.21Z" fill="#17234c" fill-rule="evenodd"/>
  <path d="M320.71,201.46c0-5.95-4.83-10.78-10.78-10.78h-32.78c-5.95,0-10.78,4.83-10.78,10.78v32.77c0,5.95,4.83,10.78,10.78,10.78h32.78c5.95,0,10.78-4.83,10.78-10.78v-32.77ZM299.15,212.24v11.21h-11.23v-11.21h11.23Z" fill="#17234c" fill-rule="evenodd"/>
  <path d="M246.47,283.87c0-5.95-4.81-10.78-10.78-10.78h-32.77c-5.95,0-10.78,4.83-10.78,10.78v32.77c0,5.95,4.83,10.78,10.78,10.78h32.77c5.96,0,10.78-4.83,10.78-10.78v-32.77ZM224.91,294.65v11.21h-11.21v-11.21h11.21Z" fill="#17234c" fill-rule="evenodd"/>
  <path d="M320.71,283.87c0-5.95-4.83-10.78-10.78-10.78h-32.78c-5.95,0-10.78,4.83-10.78,10.78v32.77c0,5.95,4.83,10.78,10.78,10.78h32.78c5.95,0,10.78-4.83,10.78-10.78v-32.77ZM299.15,294.65v11.21h-11.23v-11.21h11.23Z" fill="#17234c" fill-rule="evenodd"/>
  <path d="M246.47,366.29c0-5.95-4.81-10.78-10.78-10.78h-32.77c-5.95,0-10.78,4.83-10.78,10.78v32.77c0,5.95,4.83,10.78,10.78,10.78h32.77c5.96,0,10.78-4.83,10.78-10.78v-32.77ZM224.91,377.07v11.21h-11.21v-11.21h11.21Z" fill="#17234c" fill-rule="evenodd"/>
  <path d="M320.71,366.29c0-5.95-4.83-10.78-10.78-10.78h-32.78c-5.95,0-10.78,4.83-10.78,10.78v32.77c0,5.95,4.83,10.78,10.78,10.78h32.78c5.95,0,10.78-4.83,10.78-10.78v-32.77ZM299.15,377.07v11.21h-11.23v-11.21h11.23Z" fill="#17234c" fill-rule="evenodd"/>
  <path d="M166.41,382.53c-18.15-33.59-29-76.95-29-124.23,0-63.67,19.62-120.27,50.32-155.29,19.19-21.88,42.67-35.17,68.27-35.17s49.08,13.3,68.29,35.17c30.69,35.01,50.31,91.61,50.31,155.29,0,47.27-10.85,90.64-29,124.23-2.83,5.25-.88,11.79,4.36,14.62,5.25,2.83,11.79.88,14.62-4.36,19.66-36.39,31.59-83.29,31.59-134.49,0-69.59-22.12-131.24-55.67-169.5-23.63-26.95-52.96-42.52-84.48-42.52s-60.86,15.57-84.48,42.52c-33.55,38.26-55.67,99.91-55.67,169.5,0,51.2,11.94,98.1,31.59,134.49,2.83,5.23,9.39,7.19,14.62,4.36s7.19-9.37,4.36-14.62h0Z" fill="#17234c" fill-rule="evenodd"/>
  <path d="M245.22,57.07v66.94c0,5.95,4.83,10.78,10.78,10.78s10.78-4.83,10.78-10.78V57.07c0-5.95-4.83-10.78-10.78-10.78s-10.78,4.83-10.78,10.78h0Z" fill="#17234c" fill-rule="evenodd"/>
</svg>