<?xml version="1.0" encoding="UTF-8"?><svg id="Layer_1" xmlns="http://www.w3.org/2000/svg" viewBox="0 0 16.24 17.36"><defs><style>.cls-1{fill:#001f4e;}</style></defs><path class="cls-1" d="m7.86,12.31s.07-.01.09-.04c.02-.02.04-.05.04-.09v-.5h.58s.06-.01.09-.03c.02-.02.04-.05.04-.09s-.01-.06-.04-.09c-.02-.02-.05-.04-.09-.04h-.58v-.37h.65s.06-.01.08-.03c.02-.02.04-.05.04-.09s-.01-.06-.03-.09c-.02-.02-.05-.03-.09-.03h-.78s-.06.01-.09.04c-.02.02-.04.05-.04.09v1.22s.01.06.04.09c.02.02.05.04.09.04Z"/><path class="cls-1" d="m9.03,11.07h.37v1.11s.01.06.04.09c.02.02.05.04.09.04.03,0,.06-.01.09-.04.02-.02.04-.05.04-.09v-1.11h.37s.06-.01.09-.03c.02-.02.04-.05.04-.09,0-.03-.01-.06-.04-.09-.02-.02-.05-.03-.09-.03h-.99s-.06.01-.09.03c-.02.02-.03.05-.03.09,0,.04.01.06.03.09s.05.03.09.03Z"/><path class="cls-1" d="m6.47,12.27s.04-.05.04-.09v-.97l.71,1.03s.04.04.06.05c.02.01.05.02.08.02h.02s.08-.02.12-.05c.03-.03.05-.07.05-.12v-1.19s-.01-.07-.04-.09c-.05-.05-.13-.05-.18,0-.02.02-.04.05-.04.09v.97l-.71-1.02s-.08-.07-.14-.07h-.02s-.09.02-.12.05c-.03.03-.05.07-.05.12v1.19s.01.06.04.09c.05.05.13.05.18,0h0Z"/><path class="cls-1" d="m15.49,15.12h-.2v-7.35c.35-.27.56-.63.56-1.03v-1.85s-.02-.1-.05-.14l-2.35-2.63h.48c.3,0,.55-.25.55-.55v-.35c0-.67-.54-1.21-1.21-1.21H2.97c-.67,0-1.21.54-1.21,1.21v.35c0,.3.25.55.55.55h.48L.45,4.75s-.05.1-.05.14v1.85c0,.4.21.76.56,1.03v7.35h-.2c-.42,0-.75.31-.75.7v1.33c0,.11.09.21.21.21h15.83c.11,0,.21-.09.21-.21v-1.33c0-.39-.34-.7-.76-.7Zm-.05-8.38c0,.61-.75,1.11-1.67,1.11s-1.67-.5-1.67-1.11v-1.65h3.35v1.65Zm-7.52-1.65v1.65c0,.61-.75,1.11-1.67,1.11s-1.67-.5-1.67-1.11v-1.65h3.35Zm-3.25-.41l1.01-2.56h2.24v2.56h-3.25Zm1.58,3.58c.83,0,1.54-.36,1.88-.87.34.51,1.05.87,1.88.87s1.54-.36,1.88-.87c.34.51,1.05.87,1.88.87.41,0,.79-.09,1.12-.24v7.1H1.37v-7.1c.32.15.71.24,1.12.24.83,0,1.54-.36,1.88-.87.34.51,1.05.87,1.88.87Zm5.44-3.17v1.65c0,.61-.75,1.11-1.67,1.11s-1.67-.5-1.67-1.11v-1.65h3.35Zm-3.35-.41v-2.56h2.24c.1.25.9,2.27,1.01,2.56h-3.25Zm6.86,0h-3.16c-.04-.11-.97-2.45-1.01-2.56h1.89l2.29,2.56ZM2.32,1.7c-.08,0-.14-.06-.14-.14v-.35c0-.44.36-.8.8-.8h10.3c.44,0,.8.36.8.8v.35c0,.08-.06.14-.14.14-5.2,0-6.92,0-11.61,0Zm1.03.41h1.89l-1.01,2.56H1.06l2.29-2.56ZM.81,6.74v-1.65h3.35v1.65c0,.61-.75,1.11-1.67,1.11-.92,0-1.67-.5-1.67-1.11Zm15.03,10.21H.41v-1.13c0-.16.15-.29.34-.29h14.73c.19,0,.34.13.34.29v1.13h0Z"/><path class="cls-1" d="m3.49,9.73c-.45,0-.81.36-.81.81s.36.81.81.81c.38,0,.69-.26.78-.6h.86v1.72h-.86c-.09-.35-.41-.6-.78-.6-.45,0-.81.36-.81.81s.36.81.81.81c.38,0,.69-.26.78-.6h.86v.06c0,.23.13.45.33.56l2.32,1.27c.1.05.2.08.31.08s.21-.03.3-.08l2.36-1.27c.21-.11.34-.33.34-.56v-.05h.86c.09.35.41.6.78.6.45,0,.81-.36.81-.81s-.36-.81-.81-.81c-.38,0-.69.26-.78.6h-.86v-1.72h.86c.09.35.41.6.78.6.45,0,.81-.36.81-.81s-.36-.81-.81-.81c-.38,0-.69.26-.78.6h-.87c-.01-.21-.13-.41-.32-.52l-2.36-1.36c-.2-.11-.44-.11-.64,0l-2.32,1.36c-.19.11-.3.31-.31.52h-.87c-.09-.35-.41-.6-.78-.6Zm0,1.21c-.22,0-.4-.18-.4-.4s.18-.4.4-.4.4.18.4.4-.18.4-.4.4Zm0,2.13c-.22,0-.4-.18-.4-.4s.18-.4.4-.4.4.18.4.4-.18.4-.4.4Zm9.26-.8c.22,0,.4.18.4.4s-.18.4-.4.4-.4-.18-.4-.4.18-.4.4-.4Zm0-2.13c.22,0,.4.18.4.4s-.18.4-.4.4-.4-.18-.4-.4.18-.4.4-.4Zm-7.2.23c0-.08.04-.16.11-.2l2.32-1.36s.08-.03.12-.03.08.01.11.03l2.36,1.36c.07.04.11.12.11.2v2.56c0,.08-.05.16-.12.2l-2.36,1.27c-.07.04-.15.04-.22,0l-2.32-1.27c-.07-.04-.12-.12-.12-.2v-2.57h0Z"/></svg>